HIERARCHY
ROOT Pelvis
{
	OFFSET 0.000000 0.000000 0.000000
	CHANNELS 6 Xposition Yposition Zposition Xrotation Yrotation Zrotation
	JOINT LeftUpLeg_virtual
	{
		OFFSET 0.000000 0.000000 0.000000
		CHANNELS 3 Xrotation Yrotation Zrotation
		JOINT LeftUpLeg
		{
			OFFSET 18.735201 -5.666702 -4.541200
			CHANNELS 3 Xrotation Yrotation Zrotation
			JOINT LeftLeg
			{
				OFFSET -0.021200 -31.938179 0.493100
				CHANNELS 3 Xrotation Yrotation Zrotation
				JOINT LeftFoot
				{
					OFFSET 0.021200 -31.938179 -4.336299
					CHANNELS 3 Xrotation Yrotation Zrotation
					JOINT LeftToeBase
					{
						OFFSET 0.943001 -26.722000 15.023500
						CHANNELS 3 Xrotation Yrotation Zrotation
						End Site
						{
							OFFSET 0 0 0
						}
					}
				}
			}
		}
	}
	JOINT RightUpLeg_virtual
	{
		OFFSET 0.000000 0.000000 0.000000
		CHANNELS 3 Xrotation Yrotation Zrotation
		JOINT RightUpLeg
		{
			OFFSET -18.735201 -5.666702 -4.541200
			CHANNELS 3 Xrotation Yrotation Zrotation
			JOINT RightLeg
			{
				OFFSET 0.018946 -31.938133 0.493100
				CHANNELS 3 Xrotation Yrotation Zrotation
				JOINT RightFoot
				{
					OFFSET -0.018946 -31.938126 -4.336299
					CHANNELS 3 Xrotation Yrotation Zrotation
					JOINT RightToeBase
					{
						OFFSET -0.943001 -26.722004 15.023500
						CHANNELS 3 Xrotation Yrotation Zrotation
						End Site
						{
							OFFSET 0 0 0
						}
					}
				}
			}
		}
	}
	JOINT Hips_virtual
	{
		OFFSET 0.000000 0.000000 0.000000
		CHANNELS 3 Xrotation Yrotation Zrotation
		JOINT Hips
		{
			OFFSET -0.000000 -0.000000 -0.000000
			CHANNELS 3 Xrotation Yrotation Zrotation
			JOINT Spine
			{
				OFFSET 0.000000 10.199997 -0.299500
				CHANNELS 3 Xrotation Yrotation Zrotation
				JOINT Spine1
				{
					OFFSET 0.000000 11.900002 -1.516600
					CHANNELS 3 Xrotation Yrotation Zrotation
					JOINT Spine2
					{
						OFFSET 0.000000 13.600006 -2.842500
						CHANNELS 3 Xrotation Yrotation Zrotation
						JOINT Neck_virtual
						{
							OFFSET 0.000000 0.000000 0.000000
							CHANNELS 3 Xrotation Yrotation Zrotation
							JOINT Neck
							{
								OFFSET 0.000000 9.624100 -2.890100
								CHANNELS 3 Xrotation Yrotation Zrotation
								JOINT Head
								{
									OFFSET 0.000000 14.068802 -1.351900
									CHANNELS 3 Xrotation Yrotation Zrotation
									End Site
									{
										OFFSET 0 0 0
									}
								}
							}
						}
						JOINT LeftShoulder_virtual
						{
							OFFSET 0.000000 0.000000 0.000000
							CHANNELS 3 Xrotation Yrotation Zrotation
							JOINT LeftShoulder
							{
								OFFSET 15.263000 10.923401 -0.547700
								CHANNELS 3 Xrotation Yrotation Zrotation
								JOINT LeftArm
								{
									OFFSET 25.438599 -2.830597 -13.032500
									CHANNELS 3 Xrotation Yrotation Zrotation
									JOINT LeftForeArm
									{
										OFFSET 29.960503 0.000000 0.000000
										CHANNELS 3 Xrotation Yrotation Zrotation
										JOINT LeftHand
										{
											OFFSET 27.849251 0.000000 0.000000
											CHANNELS 3 Xrotation Yrotation Zrotation
											End Site
											{
												OFFSET 0 0 0
											}
										}
									}
								}
							}
						}
						JOINT RightShoulder_virtual
						{
							OFFSET 0.000000 0.000000 0.000000
							CHANNELS 3 Xrotation Yrotation Zrotation
							JOINT RightShoulder
							{
								OFFSET -15.263000 10.923401 -0.547700
								CHANNELS 3 Xrotation Yrotation Zrotation
								JOINT RightArm
								{
									OFFSET -25.438599 -2.830597 -13.032500
									CHANNELS 3 Xrotation Yrotation Zrotation
									JOINT RightForeArm
									{
										OFFSET -29.960503 0.000000 0.000000
										CHANNELS 3 Xrotation Yrotation Zrotation
										JOINT RightHand
										{
											OFFSET -27.849251 0.000000 0.000000
											CHANNELS 3 Xrotation Yrotation Zrotation
											End Site
											{
												OFFSET 0 0 0
											}
										}
									}
								}
							}
						}
					}
				}
			}
		}
	}
}
MOTION
Frames: 5
Frame Time: 0.03333333
5.726906 94.769669 3.811926 0.000000 0.000000 0.000000 0.022669 -13.994688 -2.003068 -13.973916 21.733990 8.846099 27.579535 9.766495 5.867144 -13.587843 8.617355 -9.950777 0.000000 0.000000 0.000000 0.022669 -13.994688 -2.003068 -16.284100 -17.786564 -11.100219 13.120729 10.052707 -2.882736 0.342789 7.769199 10.994497 0.000000 0.000000 0.000000 0.022669 -13.994688 -2.003068 0.000000 0.000000 0.000000 1.257414 -1.077659 -2.161249 0.247988 -0.899453 -0.732541 0.000000 0.000000 0.000000 0.243785 -0.917158 -0.703880 0.306829 0.916011 0.590716 0.000000 0.000000 0.000000 0.243785 -0.917158 -0.703880 -1.488744 9.670790 -3.001457 40.860493 -60.704850 -25.987213 0.000010 -22.817340 0.000013 0.000000 0.000000 0.000000 0.243785 -0.917158 -0.703880 4.389556 5.095587 -14.946401 -41.397872 -19.780025 36.650822 -179.999855 72.302320 179.999868 0.000000 0.000000 0.000000 
5.584181 94.779358 3.817554 0.000000 0.000000 0.000000 0.037626 -13.808104 -2.008485 -14.036962 21.640681 8.991661 27.527658 9.756084 5.854749 -13.463789 8.520322 -10.055520 0.000000 0.000000 0.000000 0.037626 -13.808104 -2.008485 -16.224278 -17.674805 -11.035462 13.348211 10.058021 -2.751920 0.136425 7.436759 10.811360 0.000000 0.000000 0.000000 0.037626 -13.808104 -2.008485 0.000000 0.000002 0.000000 1.260449 -1.064843 -2.075728 0.244306 -0.890372 -0.689607 0.000000 0.000000 0.000000 0.239954 -0.906838 -0.661084 0.290294 0.911911 0.569260 0.000000 0.000000 0.000000 0.239954 -0.906838 -0.661084 -1.481852 9.673278 -3.066330 40.859633 -60.864594 -25.969264 -0.000024 -22.750773 0.000009 0.000000 0.000000 0.000000 0.239954 -0.906838 -0.661084 4.393043 5.145400 -14.614277 -40.060043 -18.545336 36.976896 -179.999855 72.805882 179.999841 0.000000 0.000000 0.000000 
5.435915 94.790070 3.822725 0.000000 0.000000 0.000000 0.046632 -13.623402 -2.019118 -14.094281 21.533473 9.152360 27.478597 9.744271 5.826419 -13.339961 8.425508 -10.159840 0.000000 0.000000 0.000000 0.046632 -13.623402 -2.019118 -16.148606 -17.581508 -10.945500 13.558638 10.062531 -2.650149 -0.064328 7.119027 10.636175 0.000000 0.000000 0.000000 0.046632 -13.623402 -2.019118 0.000000 0.000000 0.000000 1.265504 -1.056313 -1.991213 0.241808 -0.884488 -0.647217 0.000000 0.000000 0.000000 0.237302 -0.899709 -0.618708 0.271846 0.907519 0.550599 0.000000 0.000000 0.000000 0.237302 -0.899709 -0.618708 -1.475812 9.676771 -3.126219 40.863488 -61.027658 -25.944122 -0.000006 -22.683931 0.000023 0.000000 0.000000 0.000000 0.237302 -0.899709 -0.618708 4.393939 5.191681 -14.254586 -38.714796 -17.278394 37.271885 -179.999855 73.320394 179.999841 0.000000 0.000000 0.000000 
5.282976 94.802254 3.827112 0.000000 0.000000 0.000000 0.045116 -13.440771 -2.036366 -14.143816 21.415322 9.323657 27.431500 9.731638 5.795059 -13.212274 8.330411 -10.269747 0.000000 0.000000 0.000000 0.045116 -13.440771 -2.036366 -16.049812 -17.494961 -10.832188 13.749864 10.066043 -2.568733 -0.257997 6.805643 10.466502 0.000000 0.000000 0.000000 0.045116 -13.440771 -2.036366 0.000000 -0.000001 0.000000 1.272321 -1.052288 -1.908765 0.240360 -0.881942 -0.605871 0.000000 0.000000 0.000000 0.235707 -0.895953 -0.577244 0.251019 0.902401 0.535458 0.000000 0.000000 0.000000 0.235707 -0.895953 -0.577244 -1.470858 9.679987 -3.176226 40.866180 -61.194875 -25.918628 -0.000004 -22.613882 -0.000012 0.000000 0.000000 0.000000 0.235707 -0.895953 -0.577244 4.391628 5.233463 -13.862315 -37.354991 -15.971192 37.525927 -179.999841 73.846557 179.999827 0.000000 0.000000 0.000000 
5.126618 94.816383 3.830624 0.000000 0.000000 0.000000 0.031305 -13.258098 -2.058996 -14.179888 21.286495 9.495543 27.377869 9.719021 5.771881 -13.076417 8.235482 -10.389065 0.000000 0.000000 0.000000 0.031305 -13.258098 -2.058996 -15.926469 -17.407809 -10.703703 13.922010 10.069052 -2.494837 -0.443185 6.489682 10.297391 0.000000 0.000000 0.000000 0.031305 -13.258098 -2.058996 0.000000 -0.000001 0.000000 1.280594 -1.052788 -1.829211 0.239822 -0.882721 -0.566063 0.000000 0.000000 0.000000 0.235036 -0.895538 -0.537204 0.227513 0.896434 0.524579 0.000000 0.000000 0.000000 0.235036 -0.895538 -0.537204 -1.467160 9.681587 -3.211860 40.861398 -61.366675 -25.900108 -0.000003 -22.538087 0.000002 0.000000 0.000000 0.000000 0.235036 -0.895538 -0.537204 4.385647 5.270031 -13.433541 -35.974005 -14.618138 37.730388 -179.999786 74.386306 179.999773 0.000000 0.000000 0.000000 
